<svg width="14" height="14" viewBox="0 0 14 14" fill="none" xmlns="http://www.w3.org/2000/svg">
<path d="M12.9999 4.59868V1.1701M12.9999 1.1701H9.57132M12.9999 1.1701L6.14275 8.02725M6.14275 4.59868V8.02725M6.14275 8.02725H9.57132M7.85714 1.17012H2.71429C2.25963 1.17012 1.82359 1.35073 1.5021 1.67222C1.18061 1.99371 1 2.42975 1 2.8844V11.4558C1 11.9105 1.18061 12.3465 1.5021 12.668C1.82359 12.9895 2.25963 13.1701 2.71429 13.1701H11.2857C11.7404 13.1701 12.1764 12.9895 12.4979 12.668C12.8194 12.3465 13 11.9105 13 11.4558V6.31298" stroke="black" stroke-width="1.1027" stroke-linecap="round" stroke-linejoin="round"/>
</svg>
