<svg width="12" height="13" viewBox="0 0 12 13" fill="none" xmlns="http://www.w3.org/2000/svg">
<path d="M11.2 6.78503H1.6V2.28503C1.59954 2.11556 1.63269 1.94769 1.69754 1.79112C1.7624 1.63455 1.85766 1.49241 1.97783 1.3729L1.98783 1.3629C2.17614 1.17487 2.41792 1.04955 2.68013 1.00408C2.94234 0.95861 3.21219 0.995201 3.45283 1.10885C3.22557 1.4867 3.13111 1.92966 3.18446 2.36735C3.23781 2.80504 3.43591 3.21234 3.74728 3.52453L4.02105 3.79831L3.51712 4.30225L4.08278 4.86791L4.5867 4.36398L7.37893 1.5718L7.88285 1.06788L7.31718 0.502205L6.81322 1.00613L6.53945 0.732355C6.21167 0.405488 5.77958 0.203995 5.3185 0.162988C4.85741 0.121982 4.39655 0.244062 4.01623 0.507955C3.61518 0.254683 3.13992 0.145344 2.66851 0.197899C2.19711 0.250454 1.75759 0.461778 1.42218 0.797155L1.41218 0.807155C1.21749 1.00078 1.06313 1.2311 0.958054 1.48477C0.852974 1.73845 0.799253 2.01045 0.8 2.28503V6.78503H0V7.58503H0.8V8.35253C0.799983 8.41702 0.810383 8.48108 0.8308 8.54225L1.575 10.7748C1.61471 10.8943 1.69108 10.9982 1.79325 11.0719C1.89542 11.1455 2.0182 11.1851 2.14415 11.185H2.46665L2.175 12.185H3.00832L3.3 11.185H8.5025L8.8025 12.185H9.6375L9.3375 11.185H9.85575C9.98172 11.1852 10.1045 11.1456 10.2067 11.0719C10.3089 10.9983 10.3853 10.8943 10.425 10.7748L11.1691 8.54225C11.1896 8.48108 11.2 8.41702 11.2 8.35253V7.58503H12V6.78503H11.2ZM4.313 1.29803C4.5334 1.07811 4.83204 0.954601 5.14339 0.954601C5.45474 0.954601 5.75338 1.07811 5.97378 1.29803L6.2475 1.5718L4.58677 3.23253L4.313 2.9588C4.09309 2.7384 3.96959 2.43977 3.96959 2.12842C3.96959 1.81707 4.09309 1.51843 4.313 1.29803V1.29803ZM10.4 8.32003L9.7117 10.385H2.2883L1.6 8.32003V7.58503H10.4V8.32003Z" fill="black"/>
</svg>
