<svg width="12" height="12" viewBox="0 0 12 12" fill="none" xmlns="http://www.w3.org/2000/svg">
<path d="M8.625 0.919739C9.10104 0.919665 9.55928 1.10066 9.90678 1.42602C10.2543 1.75137 10.465 2.19673 10.4962 2.67174L10.5 2.79474V4.70724C10.9019 4.78943 11.2657 5.00109 11.5358 5.3098C11.8059 5.61851 11.9674 6.00726 11.9955 6.41649L12 6.54474V11.0447C12.0002 11.1384 11.9653 11.2288 11.9021 11.2981C11.839 11.3673 11.7522 11.4104 11.6589 11.4189C11.5656 11.4274 11.4724 11.4006 11.3979 11.3438C11.3233 11.2871 11.2727 11.2044 11.256 11.1122L11.25 11.0447V9.16974H0.75V11.0447C0.750173 11.1384 0.715253 11.2288 0.652119 11.2981C0.588984 11.3673 0.50221 11.4104 0.408884 11.4189C0.315557 11.4274 0.222443 11.4006 0.147876 11.3438C0.0733097 11.2871 0.0226952 11.2044 0.00599996 11.1122L3.90856e-08 11.0447V6.54474C-8.81815e-05 6.11249 0.149169 5.69349 0.42251 5.35865C0.695852 5.02381 1.07649 4.79369 1.5 4.70724V2.79474C1.49993 2.3187 1.68092 1.86046 2.00628 1.51295C2.33164 1.16545 2.77699 0.954717 3.252 0.923489L3.375 0.919739H8.625ZM10.125 5.41974H1.875C1.59546 5.41973 1.32592 5.52381 1.11892 5.71168C0.911916 5.89954 0.782273 6.15775 0.75525 6.43599L0.75 6.54474V8.41974H11.25V6.54474C11.25 6.26519 11.1459 5.99566 10.9581 5.78866C10.7702 5.58165 10.512 5.45201 10.2338 5.42499L10.125 5.41974ZM8.625 1.66974H3.375C3.09534 1.66975 2.82571 1.77393 2.61869 1.96195C2.41166 2.14998 2.2821 2.40837 2.25525 2.68674L2.25 2.79474V4.66974H3V4.29474C3 4.19528 3.03951 4.0999 3.10984 4.02957C3.18016 3.95925 3.27554 3.91974 3.375 3.91974H5.25C5.34946 3.91974 5.44484 3.95925 5.51517 4.02957C5.58549 4.0999 5.625 4.19528 5.625 4.29474V4.66974H6.375V4.29474C6.375 4.19528 6.41451 4.0999 6.48483 4.02957C6.55516 3.95925 6.65054 3.91974 6.75 3.91974H8.625C8.72446 3.91974 8.81984 3.95925 8.89017 4.02957C8.96049 4.0999 9 4.19528 9 4.29474V4.66974H9.75V2.79474C9.75 2.51519 9.64593 2.24566 9.45806 2.03866C9.27019 1.83165 9.01199 1.70201 8.73375 1.67499L8.625 1.66974Z" fill="black"/>
</svg>
