<svg width="25" height="24" viewBox="0 0 25 24" fill="none" xmlns="http://www.w3.org/2000/svg">
<path d="M22.4037 1H3.20371C1.88371 1 0.803711 2.2375 0.803711 3.75V20.25C0.803711 21.7625 1.88371 23 3.20371 23H22.4037C23.7237 23 24.8037 21.7625 24.8037 20.25V3.75C24.8037 2.2375 23.7237 1 22.4037 1ZM21.9237 6.84375L14.0757 12.4675C13.2957 13.0313 12.3117 13.0313 11.5317 12.4675L3.68371 6.84375C3.38371 6.62375 3.20371 6.2525 3.20371 5.85375C3.20371 4.9325 4.07971 4.3825 4.76371 4.86375L12.8037 10.625L20.8437 4.86375C21.5277 4.3825 22.4037 4.9325 22.4037 5.85375C22.4037 6.2525 22.2237 6.62375 21.9237 6.84375Z" fill="#7D9B8F"/>
</svg>
