<svg width="40" height="40" viewBox="0 0 40 40" fill="none" xmlns="http://www.w3.org/2000/svg">
<path d="M6.15163 10.4867C8.48996 7.95169 12.0283 6.66669 16.6666 6.66669H18.3333V11.365L16.9933 11.6334C14.71 12.09 13.1216 12.9884 12.2716 14.3067C11.8281 15.0169 11.5766 15.8301 11.5416 16.6667H16.6666C17.1087 16.6667 17.5326 16.8423 17.8451 17.1548C18.1577 17.4674 18.3333 17.8913 18.3333 18.3334V30C18.3333 31.8384 16.8383 33.3334 15 33.3334H4.99996C4.55793 33.3334 4.13401 33.1578 3.82145 32.8452C3.50889 32.5326 3.33329 32.1087 3.33329 31.6667V23.3334L3.33829 18.4684C3.32329 18.2834 3.00663 13.9 6.15163 10.4867ZM33.3333 33.3334H23.3333C22.8913 33.3334 22.4673 33.1578 22.1548 32.8452C21.8422 32.5326 21.6666 32.1087 21.6666 31.6667V23.3334L21.6716 18.4684C21.6566 18.2834 21.34 13.9 24.485 10.4867C26.8233 7.95169 30.3616 6.66669 35 6.66669H36.6666V11.365L35.3266 11.6334C33.0433 12.09 31.455 12.9884 30.605 14.3067C30.1615 15.0169 29.9099 15.8301 29.875 16.6667H35C35.442 16.6667 35.8659 16.8423 36.1785 17.1548C36.491 17.4674 36.6666 17.8913 36.6666 18.3334V30C36.6666 31.8384 35.1716 33.3334 33.3333 33.3334Z" fill="white"/>
</svg>
