<svg width="40" height="40" viewBox="0 0 40 40" fill="none" xmlns="http://www.w3.org/2000/svg">
<path d="M20 36C17.4739 34.085 15.1324 31.9857 13 29.7239C9.79999 26.3272 6 21.2687 6 16.4483C5.99861 13.9864 6.81902 11.5796 8.35738 9.53232C9.89575 7.48504 12.0829 5.88935 14.6421 4.94721C17.2013 4.00506 20.0175 3.7588 22.7342 4.2396C25.4509 4.7204 27.9461 5.90664 29.9039 7.6482C31.2074 8.8015 32.2406 10.1731 32.9437 11.6836C33.6468 13.1942 34.0058 14.8136 33.9999 16.4483C33.9999 21.2687 30.1999 26.3272 26.9999 29.7239C24.8676 31.9857 22.5261 34.085 20 36ZM20 11.116C18.4087 11.116 16.8826 11.6778 15.7573 12.6778C14.6321 13.6778 14 15.034 14 16.4483C14 17.8625 14.6321 19.2188 15.7573 20.2188C16.8826 21.2188 18.4087 21.7806 20 21.7806C21.5913 21.7806 23.1174 21.2188 24.2426 20.2188C25.3678 19.2188 26 17.8625 26 16.4483C26 15.034 25.3678 13.6778 24.2426 12.6778C23.1174 11.6778 21.5913 11.116 20 11.116Z" fill="#7D9B8F"/>
</svg>
